<?xml version="1.0" encoding="UTF-8" standalone="no"?>
<svg
   xmlns:dc="http://purl.org/dc/elements/1.1/"
   xmlns:cc="http://creativecommons.org/ns#"
   xmlns:rdf="http://www.w3.org/1999/02/22-rdf-syntax-ns#"
   xmlns:svg="http://www.w3.org/2000/svg"
   xmlns="http://www.w3.org/2000/svg"
   xmlns:sodipodi="http://sodipodi.sourceforge.net/DTD/sodipodi-0.dtd"
   xmlns:inkscape="http://www.inkscape.org/namespaces/inkscape"
   height="256px"
   id="Layer_1"
   style="enable-background:new 0 0 256 256;"
   version="1.1"
   viewBox="0 0 256 256"
   width="256px"
   xml:space="preserve"
   sodipodi:docname="if_codewars_w.svg"
   inkscape:version="0.92.2 2405546, 2018-03-11"><sodipodi:namedview
     pagecolor="#ffffff"
     bordercolor="#666666"
     borderopacity="1"
     objecttolerance="10"
     gridtolerance="10"
     guidetolerance="10"
     inkscape:pageopacity="0"
     inkscape:pageshadow="2"
     inkscape:window-width="1920"
     inkscape:window-height="1055"
     id="namedview21"
     showgrid="false"
     inkscape:zoom="3.0789185"
     inkscape:cx="73.59778"
     inkscape:cy="128"
     inkscape:window-x="0"
     inkscape:window-y="0"
     inkscape:window-maximized="1"
     inkscape:current-layer="g18" /><metadata
     id="metadata25"><rdf:RDF><cc:Work
         rdf:about=""><dc:format>image/svg+xml</dc:format><dc:type
           rdf:resource="http://purl.org/dc/dcmitype/StillImage" /><dc:title></dc:title></cc:Work></rdf:RDF></metadata><defs
     id="defs23" /><style
     id="style2"
     type="text/css">
	.st0{fill:none;stroke:#000000;stroke-width:4;stroke-linecap:round;stroke-linejoin:round;stroke-miterlimit:10;}
</style><g
     id="g18"><path
       style="opacity:1;fill:none;stroke:#ffffff;stroke-width:4;stroke-linecap:round;stroke-linejoin:round;stroke-miterlimit:10"
       inkscape:connector-curvature="0"
       id="path4"
       d="M 132.404,226.306 C 190.518,222.755 233.942,171.727 228.51,117.421 223.207,64.4 173.755,25.96 121.386,29.518 68.295,33.124 24.571,79.151 27.018,132.559 c 4.318,83.454 84.984,95.212 88.478,94.081"
       class="st0" /><path
       style="opacity:1;fill:none;stroke:#ffffff;stroke-width:4;stroke-linecap:round;stroke-linejoin:round;stroke-miterlimit:10"
       inkscape:connector-curvature="0"
       id="path6"
       d="m 128.833,124.943 c 15,-28.667 44.333,-22.667 56.5,-6.833 12.167,15.834 5.417,46.161 -9.333,47.833"
       class="st0" /><path
       style="opacity:1;fill:none;stroke:#ffffff;stroke-width:4;stroke-linecap:round;stroke-linejoin:round;stroke-miterlimit:10"
       inkscape:connector-curvature="0"
       id="path8"
       d="m 128.833,124.943 c -16.344,-27.922 5.503,-50.27 25.379,-52.185 24.462,-2.356 43.287,20.435 37.658,32.591"
       class="st0" /><path
       style="opacity:1;fill:none;stroke:#ffffff;stroke-width:4;stroke-linecap:round;stroke-linejoin:round;stroke-miterlimit:10"
       inkscape:connector-curvature="0"
       id="path10"
       d="M 128.833,124.943 C 97.517,124.016 87.823,97.417 96.076,76.167 105,53.193 138.5,51.943 147.302,63.85"
       class="st0" /><path
       style="opacity:1;fill:none;stroke:#ffffff;stroke-width:4;stroke-linecap:round;stroke-linejoin:round;stroke-miterlimit:10"
       inkscape:connector-curvature="0"
       id="path12"
       d="M 128.833,124.943 C 110.866,151.85 78.93,146.419 68.518,129.38 58.106,112.341 63.75,84.193 83.902,81.6"
       class="st0" /><path
       style="opacity:1;fill:none;stroke:#ffffff;stroke-width:4;stroke-linecap:round;stroke-linejoin:round;stroke-miterlimit:10"
       inkscape:connector-curvature="0"
       id="path14"
       d="m 128.833,124.943 c 13.278,29.504 -10.266,53.482 -30.234,53.483 C 79.75,178.427 59.25,164.193 65.512,143.112"
       class="st0" /><path
       style="opacity:1;fill:none;stroke:#ffffff;stroke-width:4;stroke-linecap:round;stroke-linejoin:round;stroke-miterlimit:10"
       inkscape:connector-curvature="0"
       id="path16"
       d="m 128.833,124.943 c 32.054,4.395 43.132,34.492 32.36,51.305 -10.772,16.813 -39.694,23.861 -49.487,10.315"
       class="st0" /></g></svg>